<?xml version="1.0" encoding="UTF-8"?>
<svg width="273.41mm" height="31.833mm" version="1.1" viewBox="0 0 273.41 31.833" xmlns="http://www.w3.org/2000/svg">
 <g transform="translate(-12.151 -59.301)">
  <path d="m12.151 59.797v30.613h6.1392v-26.252l8.1649 26.252h5.4157l8.3509-26.252v26.252h5.5811l0.93018-2.575v-28.038h-10.418l-6.9867 22.283-6.4699-22.283z" fill="#f00"/>
  <path d="m56.862 59.797-11.059 30.613h6.2632l2.2944-6.5939h12.113l2.1911 6.5939h6.0771v-1.5487l-10.087-29.064zm3.7207 6.0151 4.2375 13.043h-8.7643z" fill="#4949ff"/>
  <path d="m74.742 59.797v30.613h6.6766v-12.361h6.0565c1.7363 0 2.7492 0.62701 3.0386 1.881 0.30317 1.254 0.59256 2.9077 0.86816 4.9609l0.76481 5.519h7.152v-0.10645c-0.48395-0.65851-0.86291-1.8355-1.1369-3.5316-0.28939-1.8052-0.565-3.7207-0.82682-5.7464-0.24805-2.0395-0.7717-3.4658-1.571-4.2788-0.78548-0.81304-2.0395-1.3091-3.762-1.4883 2.1773-0.60634 3.7896-1.5365 4.8369-2.7905s1.571-2.825 1.571-4.7129c0-2.1773-0.79237-4.0445-2.3771-5.6017-1.5847-1.571-4.0997-2.3564-7.5448-2.3564zm6.4699 4.8369h5.8084c1.5021 0 2.6321 0.35829 3.39 1.0749 0.75792 0.7028 1.1369 1.7225 1.1369 3.0592 0 1.2954-0.41341 2.3564-1.2402 3.1833-0.82682 0.81304-1.9499 1.2196-3.3693 1.2196h-5.7257z" fill="#ffbd14"/>
  <path d="m116.1 59.797-10.232 13.25v-13.167h-6.5732v30.53h6.5732v-15.586l10.707 15.586h8.1649l-12.196-16.888 8.785-10.742v-2.9828z" fill="#92c821"/>
  <path d="m121.33 59.797v5.085h9.0951v25.528h6.5939v-25.528h8.3509v-5.0023h0.76481v-0.08268z" fill="#f00"/>
  <path d="m145.37 59.88v30.53h6.6559v-11.886h5.1676c3.5967 0 6.1805-0.92329 7.7515-2.7699 1.571-1.8604 2.3564-4.1272 2.3564-6.8006 0-1.8052-0.38585-3.3762-1.1576-4.7129-0.75792-1.3367-1.943-2.3978-3.5553-3.1833-1.5985-0.78548-4.079-1.1782-7.4414-1.1782zm6.4699 4.9609h3.7414c1.7088 0 2.9559 0.34451 3.7414 1.0335 0.79926 0.67524 1.1989 1.7157 1.1989 3.1213 0 1.5434-0.44097 2.7078-1.3229 3.4933-0.86816 0.7717-2.2875 1.1576-4.2581 1.1576h-3.1006z" fill="#4949ff"/>
  <path d="m167.43 59.839v30.572h16.867l1.8815-5.209h-12.051v-25.363z" fill="#ffbd14"/>
  <path d="m195.35 59.797-11.059 30.613h6.2632l2.2944-6.5939h12.113l2.1911 6.5939h3.7414l1.4655-4.0566-9.217-26.557zm3.7207 6.0151 4.2375 13.043h-8.7643z" fill="#92c821"/>
  <path d="m221.96 59.797-11.059 30.613h6.2632l2.2944-6.5939h12.113l2.1911 6.5939h6.6146l-10.625-30.613zm3.7207 6.0151 4.2375 13.043h-8.7643z" fill="#f00"/>
  <path d="m237.89 59.797v5.085h9.0951v25.528h6.5939v-25.528h8.8708c0.0763-0.16704 0.15788-0.3308 0.24494-0.49093v-4.594z" fill="#4949ff"/>
  <path d="m273.76 59.301c-3.6794 0-6.6146 0.83372-8.8057 2.5011-2.1773 1.6536-3.2797 3.9963-3.3073 7.028 0 1.3505 0.29628 2.5769 0.88884 3.6794 0.59255 1.1024 1.6536 2.0946 3.1833 2.9766s3.9963 1.7501 7.4001 2.6045l1.0749 0.24805c1.4883 0.35829 2.6114 0.79237 3.3693 1.3022s1.1369 1.3367 1.1369 2.4805c0 1.3367-0.53744 2.3909-1.6123 3.1626-1.0749 0.75792-2.4667 1.1369-4.1754 1.1369-1.7777 0-3.1488-0.44097-4.1134-1.3229-0.96463-0.89572-1.4469-2.3013-1.4469-4.2168v-0.24805h-6.6766c0 3.5691 0.96462 6.215 2.8939 7.9375 1.9292 1.7088 4.954 2.5632 9.0744 2.5632 3.8172 0 6.9246-0.90951 9.3224-2.7285 2.3978-1.8328 3.5967-4.2375 3.5967-7.214 0-2.1222-0.70969-3.8654-2.1291-5.2297-1.4194-1.3643-3.6036-2.3702-6.5526-3.0179s-5.0987-1.2609-6.4492-1.8397c-1.3505-0.57878-2.0257-1.5916-2.0257-3.0386 0-1.2954 0.47543-2.3082 1.4263-3.0386 0.95085-0.74414 2.1566-1.1162 3.6174-1.1162 1.4883 0 2.6527 0.39274 3.4933 1.1782 0.85438 0.7717 1.3436 1.8604 1.4676 3.266v0.20671h6.3045v-0.20671c0-2.8525-0.97841-5.0712-2.9352-6.6559-1.9568-1.5985-4.6302-2.3978-8.0202-2.3978z" fill="#ffbd14"/>
 </g>
</svg>
